# xmcd CD database file
#
# Track frame offsets:
#	150
#	15386
#	28288
#	43633
#	57576
#	76619
#	95410
#	111082
#	122994
#	137260
#	154123
#	167828
#	180638
#
# Disc length: 2590 seconds
#
# Revision: 0
# Processed by: cddbd v1.4PL0 Copyright (c) Steve Scherf et al.
# Submitted via: CDex 1.40Beta8
#
DISCID=a00a1c0d
DTITLE=Erik Moll - Most Of All
DYEAR=1998
DGENRE=Country
TTITLE0=My Haunted Heart
TTITLE1=I Like You A Lot
TTITLE2=Stormy Night In Texas
TTITLE3=Can You Handle It?
TTITLE4=Far As You Want It To Go
TTITLE5=She Thinks Different  Now
TTITLE6=Not The Way I Planned It
TTITLE7=Louky Waltz
TTITLE8=My Love Your Love
TTITLE9=Rise From The Ashes
TTITLE10=I Learned To Love This Road
TTITLE11=I Love Your Cookin'
TTITLE12=Steppin' Stone
EXTD=YEAR: 1998 ID3G: 2
EXTT0=
EXTT1=
EXTT2=
EXTT3=
EXTT4=
EXTT5=
EXTT6=
EXTT7=
EXTT8=
EXTT9=
EXTT10=
EXTT11=
EXTT12=
PLAYORDER=
